<!DOCTYPE svg PUBLIC "-//W3C//DTD SVG 1.1//EN" "http://www.w3.org/Graphics/SVG/1.1/DTD/svg11.dtd">
<!-- Uploaded to: SVG Repo, www.svgrepo.com, Transformed by: SVG Repo Mixer Tools -->
<svg fill="#ffffff" version="1.1" id="Capa_1" xmlns="http://www.w3.org/2000/svg" xmlns:xlink="http://www.w3.org/1999/xlink" width="800px" height="800px" viewBox="-90.97 -90.97 636.77 636.77" xml:space="preserve" stroke="#ffffff">
<g id="SVGRepo_bgCarrier" stroke-width="0"/>
<g id="SVGRepo_tracerCarrier" stroke-linecap="round" stroke-linejoin="round" stroke="#0a0a0a" stroke-width="22.74165"> <g> <path d="M220.917,112.86h111.666l-76.91-76.905c-8.252-8.254-8.252-21.698,0-29.953c7.991-8.003,21.958-8.003,29.955,0 l113.067,113.07c4.001,3.999,6.206,9.321,6.206,14.978c0,5.66-2.205,10.982-6.206,14.981L285.634,262.095 c-7.997,8.003-21.946,8.015-29.961,0c-8.252-8.257-8.252-21.698,0-29.956l76.91-76.911H220.917 c-70.917,0-128.618,57.701-128.618,128.618c0,70.923,57.701,128.618,128.618,128.618h60.526c10.03,0,18.158,8.133,18.158,18.158 v6.053c0,10.03-8.128,18.157-18.158,18.157h-60.526c-94.279,0-170.986-76.704-170.986-170.986 C49.931,189.567,126.638,112.86,220.917,112.86z"/> </g> </g>
<g id="SVGRepo_iconCarrier"> <g> <path d="M220.917,112.86h111.666l-76.91-76.905c-8.252-8.254-8.252-21.698,0-29.953c7.991-8.003,21.958-8.003,29.955,0 l113.067,113.07c4.001,3.999,6.206,9.321,6.206,14.978c0,5.66-2.205,10.982-6.206,14.981L285.634,262.095 c-7.997,8.003-21.946,8.015-29.961,0c-8.252-8.257-8.252-21.698,0-29.956l76.91-76.911H220.917 c-70.917,0-128.618,57.701-128.618,128.618c0,70.923,57.701,128.618,128.618,128.618h60.526c10.03,0,18.158,8.133,18.158,18.158 v6.053c0,10.03-8.128,18.157-18.158,18.157h-60.526c-94.279,0-170.986-76.704-170.986-170.986 C49.931,189.567,126.638,112.86,220.917,112.86z"/> </g> </g>
</svg>