<!DOCTYPE svg PUBLIC "-//W3C//DTD SVG 1.1//EN" "http://www.w3.org/Graphics/SVG/1.1/DTD/svg11.dtd">
<!-- Uploaded to: SVG Repo, www.svgrepo.com, Transformed by: SVG Repo Mixer Tools -->
<svg fill="#ffffff" width="800px" height="800px" viewBox="-2.88 -2.88 29.76 29.76" xmlns="http://www.w3.org/2000/svg" stroke="#ffffff">
<g id="SVGRepo_bgCarrier" stroke-width="0"/>
<g id="SVGRepo_tracerCarrier" stroke-linecap="round" stroke-linejoin="round" stroke="#000000" stroke-width="1.8719999999999999"> <path fill-rule="evenodd" d="M13,8 L13,6 L19,6 C20.1045695,6 21,6.8954305 21,8 L21,19 C21,20.1045695 20.1045695,21 19,21 L8,21 C6.8954305,21 6,20.1045695 6,19 L6,13 L8,13 L8,19 L19,19 L19,8 L13,8 Z M6,6 L6,3 L8,3 L8,6 L11,6 L11,8 L8,8 L8,11 L6,11 L6,8 L3,8 L3,6 L6,6 Z"/> </g>
<g id="SVGRepo_iconCarrier"> <path fill-rule="evenodd" d="M13,8 L13,6 L19,6 C20.1045695,6 21,6.8954305 21,8 L21,19 C21,20.1045695 20.1045695,21 19,21 L8,21 C6.8954305,21 6,20.1045695 6,19 L6,13 L8,13 L8,19 L19,19 L19,8 L13,8 Z M6,6 L6,3 L8,3 L8,6 L11,6 L11,8 L8,8 L8,11 L6,11 L6,8 L3,8 L3,6 L6,6 Z"/> </g>
</svg>